<svg width="190" height="31" viewBox="0 0 190 31" fill="none" xmlns="http://www.w3.org/2000/svg">
<path fill-rule="evenodd" clip-rule="evenodd" d="M24.7818 5.57984L16.9657 1.06721C15.0785 -0.0224039 12.7532 -0.0224041 10.866 1.06721L3.04988 5.57984C1.16261 6.66945 0 8.68314 0 10.8624V19.8876C0 22.0669 1.16261 24.0805 3.04988 25.1702L10.866 29.6828C12.7532 30.7724 15.0785 30.7724 16.9657 29.6828L24.7818 25.1702C26.6691 24.0805 27.8317 22.0669 27.8317 19.8876V10.8624C27.8317 8.68315 26.6691 6.66945 24.7818 5.57984ZM0.79562 19.8876V10.8624C0.79562 10.7439 0.799569 10.6261 0.807374 10.5089C0.79957 10.6261 0.795624 10.7439 0.795624 10.8624V19.8876C0.795624 19.8876 0.79562 19.8876 0.79562 19.8876ZM1.20204 21.924C1.64246 22.9829 2.422 23.889 3.44769 24.4811L11.2638 28.9938C12.9049 29.9413 14.9268 29.9413 16.5679 28.9938L16.5679 28.9937C14.9268 29.9412 12.9049 29.9412 11.2638 28.9937L3.44769 24.4811C2.42201 23.8889 1.64246 22.9829 1.20204 21.924ZM24.384 24.4811C25.0121 24.1185 25.548 23.6381 25.9701 23.077C25.548 23.6381 25.0121 24.1185 24.384 24.4811L24.384 24.4811ZM11.4029 1.98588C12.9619 1.08576 14.8827 1.08576 16.4418 1.98588L24.2412 6.48889L24.2451 6.49095L24.2453 6.49105L24.2455 6.49112L24.2475 6.49225L24.2584 6.49824C24.2684 6.50385 24.284 6.51269 24.3044 6.52476C24.3454 6.54892 24.4059 6.58598 24.4811 6.63594C24.815 6.85772 24.9324 7.19353 24.8815 7.53629C24.8294 7.8876 24.5973 8.24749 24.2201 8.46619L21.0936 10.2787L9.07584 3.32939L11.4029 1.98588ZM3.29069 6.67886C3.32677 6.65426 3.36357 6.62986 3.40108 6.60572L7.38228 4.30717L19.4026 11.2579L16.453 12.9657C14.8928 13.8691 12.9688 13.8701 11.4076 12.9683L3.54831 8.42821C3.18044 8.2157 2.95732 7.87391 2.90669 7.54234C2.85745 7.21988 2.96768 6.899 3.29069 6.67886ZM14.7503 27.2098C14.7503 27.3794 14.8217 27.5732 14.9141 27.7474L25.0816 10.0729C24.9158 10.0833 24.7323 10.1184 24.5709 10.2015L17.2644 14.4321C15.7084 15.3331 14.7503 16.9948 14.7503 18.7928V27.2098ZM24.2509 24.3038C25.8099 23.4037 26.7704 21.7402 26.7704 19.94V11.6213V11.621V11.6207L26.7703 11.6181L26.7697 11.6005C26.769 11.5841 26.7675 11.5589 26.7643 11.5266C26.758 11.4616 26.7451 11.3699 26.7195 11.2654C26.6923 11.1548 26.6521 11.0356 26.5934 10.9206L16.3774 28.6364C16.5464 28.6316 16.6863 28.6036 16.7941 28.5713C16.8859 28.5439 16.955 28.5132 16.9991 28.4908C17.0212 28.4796 17.0369 28.4705 17.0461 28.4649L17.0548 28.4595L17.0553 28.4592L17.0627 28.4539L24.2509 24.3038ZM10.7965 14.5628H1.05786V11.5855C1.09167 10.8968 1.44138 10.4328 1.91444 10.2123C2.39584 9.98794 3.037 10.002 3.66024 10.3482C5.7302 11.498 8.63723 13.1553 10.7364 14.5232C10.757 14.5367 10.7771 14.5499 10.7965 14.5628ZM13.1142 27.1017V27.1021L13.1141 27.1042L13.1134 27.122C13.1125 27.1388 13.1107 27.165 13.1069 27.1988C13.0993 27.2667 13.0838 27.3638 13.0525 27.4762C13.0077 27.6375 12.9321 27.8247 12.8051 28.0021L2.13963 16.257H12.4232C12.4324 16.2711 12.4423 16.2867 12.4528 16.3038C12.5174 16.4084 12.6066 16.5692 12.6987 16.7862C12.8824 17.219 13.0786 17.8769 13.1142 18.7617V27.1012L13.1142 27.1014L13.1142 27.1017ZM10.6901 28.4047L10.6895 28.4044L10.6893 28.4043L10.6892 28.4042L10.6889 28.404L10.6884 28.4037L10.6816 28.399L6.1845 25.8091L6.18426 25.809L3.57733 24.3038C2.01828 23.4037 1.05786 21.7402 1.05786 19.94V17.593L11.0022 28.5496C10.9871 28.5443 10.9725 28.539 10.9582 28.5337C10.8693 28.5003 10.7991 28.466 10.7524 28.4409C10.7291 28.4283 10.7118 28.4182 10.7011 28.4116L10.6901 28.4047Z" fill="#DBF91D"/>
<path fill-rule="evenodd" clip-rule="evenodd" d="M167.437 7.32955C168.432 7.3035 169.422 7.47391 170.351 7.83103C171.279 8.18815 172.129 8.72497 172.849 9.41073C172.896 9.44783 172.934 9.49453 172.961 9.54765C172.988 9.60077 173.003 9.65905 173.005 9.7185C173.007 9.77796 172.996 9.83719 172.973 9.89213C172.951 9.94708 172.916 9.99646 172.873 10.0369L171.507 11.4355C171.474 11.4777 171.431 11.5117 171.383 11.5352C171.335 11.5586 171.281 11.5708 171.228 11.5708C171.174 11.5708 171.121 11.5586 171.072 11.5352C171.024 11.5117 170.981 11.4777 170.948 11.4355C169.995 10.5974 168.773 10.1294 167.504 10.1164C164.64 10.1164 162.515 12.5107 162.515 15.3284C162.515 18.146 164.663 20.4967 167.527 20.4967C168.782 20.482 169.993 20.028 170.948 19.2136C171.024 19.1434 171.124 19.1045 171.228 19.1045C171.331 19.1045 171.431 19.1434 171.507 19.2136L172.896 20.6455C172.934 20.6866 172.964 20.7348 172.983 20.7873C173.003 20.8399 173.011 20.8958 173.009 20.9518C173.007 21.0079 172.994 21.0629 172.971 21.1138C172.947 21.1648 172.914 21.2105 172.873 21.2486C171.418 22.6612 169.465 23.4416 167.437 23.4196C166.368 23.4387 165.305 23.2444 164.311 22.8483C163.317 22.4521 162.412 21.8619 161.649 21.1121C160.885 20.3623 160.279 19.468 159.865 18.4814C159.451 17.4947 159.238 16.4355 159.238 15.3656C159.238 14.2956 159.451 13.2364 159.865 12.2498C160.279 11.2631 160.885 10.3688 161.649 9.61903C162.412 8.86926 163.317 8.27905 164.311 7.88288C165.305 7.4867 166.368 7.29249 167.437 7.31159V7.32955ZM89.2738 7.32953C90.3336 7.32682 91.3834 7.53373 92.363 7.93835C93.3425 8.34298 94.2323 8.93733 94.9812 9.6872C95.7301 10.4371 96.3233 11.3276 96.7267 12.3077C97.1301 13.2877 97.3357 14.3378 97.3316 15.3976C97.3316 18.4411 95.5661 21.1254 92.9691 22.5573L95.7662 26.9635C95.8132 27.0274 95.8412 27.1032 95.8469 27.1823C95.8526 27.2614 95.8359 27.3406 95.7986 27.4106C95.7613 27.4806 95.705 27.5386 95.6362 27.578C95.5673 27.6174 95.4888 27.6365 95.4095 27.6332H93.0384C92.9656 27.6254 92.8955 27.6012 92.8333 27.5626C92.7711 27.5239 92.7184 27.4718 92.6791 27.41L90.3003 23.3605C89.9658 23.4036 89.629 23.4267 89.2917 23.4298C88.2352 23.4363 87.188 23.2329 86.2107 22.8315C85.2334 22.4301 84.3455 21.8387 83.5986 21.0915C82.8516 20.3443 82.2605 19.4563 81.8594 18.4789C81.4583 17.5014 81.2553 16.4541 81.2621 15.3976C81.2557 14.3411 81.4581 13.2937 81.8578 12.3156C82.2574 11.3375 82.8464 10.448 83.5909 9.69828C84.3354 8.94855 85.2207 8.35332 86.196 7.94681C87.1712 7.54031 88.2172 7.33053 89.2738 7.32953ZM89.2738 20.5274C90.2889 20.5274 91.2812 20.2264 92.1252 19.6625C92.9692 19.0985 93.627 18.297 94.0155 17.3591C94.4039 16.4213 94.5056 15.3894 94.3075 14.3938C94.1095 13.3982 93.6207 12.4837 92.9029 11.7659C92.1851 11.0481 91.2706 10.5593 90.2751 10.3613C89.2795 10.1633 88.2475 10.2649 87.3097 10.6534C86.3719 11.0418 85.5703 11.6997 85.0064 12.5437C84.4424 13.3877 84.1414 14.38 84.1414 15.3951C84.1488 16.7533 84.6922 18.0536 85.6533 19.0133C86.6144 19.9729 87.9156 20.5144 89.2738 20.5197V20.5274ZM45.9228 8.0633C45.5939 8.39218 45.4086 8.83786 45.4072 9.30297L45.4201 21.3589C45.4201 21.8476 45.6142 22.3163 45.9597 22.6618C46.3053 23.0073 46.7739 23.2015 47.2626 23.2015H51.1119C52.1566 23.2282 53.1961 23.0456 54.1691 22.6642C55.1421 22.2829 56.0289 21.7107 56.7772 20.9813C57.5256 20.2518 58.1204 19.3799 58.5264 18.417C58.9325 17.4541 59.1418 16.4196 59.1418 15.3746C59.1418 14.3295 58.9325 13.2951 58.5264 12.3321C58.1204 11.3692 57.5256 10.4973 56.7772 9.7679C56.0289 9.03846 55.1421 8.46622 54.1691 8.08491C53.1961 7.7036 52.1566 7.52094 51.1119 7.5477H47.1625C46.6974 7.54905 46.2517 7.73442 45.9228 8.0633ZM55.8747 15.3438C55.8747 18.2846 53.7499 20.4762 50.8424 20.4762H48.2916V10.2525H50.8424C53.7499 10.2525 55.8747 12.4029 55.8747 15.3438ZM65.6934 8.5894C65.6084 8.79443 65.5646 9.01421 65.5646 9.23617V21.5385C65.5646 21.9802 65.7401 22.4038 66.0524 22.7161C66.3647 23.0285 66.7884 23.2039 67.2301 23.2039H74.3743C74.5245 23.2043 74.6733 23.175 74.8121 23.1178C74.951 23.0605 75.0772 22.9765 75.1835 22.8704C75.2898 22.7643 75.3741 22.6383 75.4317 22.4996C75.4892 22.3609 75.5189 22.2122 75.5189 22.062V20.9457C75.5189 20.8332 75.4743 20.7252 75.395 20.6454C75.3157 20.5656 75.208 20.5204 75.0954 20.5197H68.4721V16.6063H73.9971C74.1101 16.6063 74.2184 16.5614 74.2983 16.4815C74.3782 16.4016 74.4231 16.2933 74.4231 16.1803V14.3249C74.4231 14.2119 74.3782 14.1036 74.2983 14.0237C74.2184 13.9438 74.1101 13.8989 73.9971 13.8989H68.4721V10.2319H75.0954C75.208 10.2312 75.3157 10.186 75.395 10.1062C75.4743 10.0264 75.5189 9.9184 75.5189 9.80586V8.71267C75.5189 8.40368 75.3961 8.10734 75.1776 7.88885C74.9591 7.67036 74.6628 7.54762 74.3538 7.54762H67.2557C67.0338 7.54728 66.8139 7.59071 66.6088 7.67541C66.4036 7.76012 66.2171 7.88444 66.0601 8.04127C65.903 8.1981 65.7784 8.38436 65.6934 8.5894ZM103.897 8.03452C103.585 8.34568 103.41 8.76759 103.408 9.20796L103.426 17.2761C103.459 18.9063 104.13 20.4586 105.295 21.5999C106.459 22.7411 108.025 23.3803 109.656 23.3803C111.286 23.3803 112.852 22.7411 114.016 21.5999C115.181 20.4586 115.852 18.9063 115.885 17.2761V9.26698C115.884 8.81119 115.703 8.37426 115.381 8.05197C115.058 7.72968 114.621 7.54831 114.166 7.54763H113.652C113.552 7.54454 113.453 7.56157 113.36 7.59771C113.266 7.63385 113.181 7.68836 113.109 7.75802C113.038 7.82767 112.98 7.91104 112.941 8.00318C112.903 8.09532 112.882 8.19435 112.883 8.2944V17.1426C112.883 19.0211 111.571 20.5197 109.626 20.5197C107.681 20.5197 106.382 19.0211 106.382 17.1195V8.2944C106.382 8.09634 106.304 7.9064 106.164 7.76635C106.024 7.62631 105.834 7.54763 105.636 7.54763H105.071C104.631 7.54831 104.208 7.72337 103.897 8.03452ZM123.366 9.20281C123.366 8.76383 123.54 8.34282 123.85 8.03241C124.161 7.722 124.582 7.54762 125.021 7.54762H132.188C132.337 7.54728 132.484 7.57624 132.621 7.63283C132.758 7.68942 132.883 7.77254 132.988 7.87742C133.093 7.9823 133.177 8.10689 133.234 8.24405C133.29 8.38121 133.32 8.52825 133.32 8.67674V9.80587C133.32 9.91796 133.276 10.0255 133.197 10.1053C133.118 10.185 133.011 10.2305 132.899 10.2319H126.278V13.8989H131.803C131.916 13.8996 132.024 13.9447 132.104 14.0245C132.183 14.1042 132.228 14.2122 132.229 14.3249V16.1803C132.229 16.2933 132.184 16.4016 132.104 16.4815C132.025 16.5614 131.916 16.6063 131.803 16.6063H126.273V20.5197H132.899C132.955 20.5197 133.01 20.5307 133.062 20.5521C133.114 20.5735 133.161 20.6049 133.2 20.6445C133.24 20.684 133.271 20.731 133.292 20.7827C133.314 20.8344 133.325 20.8898 133.325 20.9457V22.1852C133.325 22.4574 133.217 22.7185 133.024 22.911C132.832 23.1035 132.571 23.2116 132.298 23.2116H125.177C124.699 23.2117 124.241 23.0229 123.902 22.6865C123.562 22.35 123.37 21.8931 123.366 21.4153V9.20281ZM139.689 7.449C139.616 7.52249 139.574 7.62114 139.571 7.7247L139.551 21.382C139.552 21.8652 139.745 22.3282 140.087 22.6697C140.429 23.0112 140.892 23.2033 141.375 23.204H142.012C142.417 23.204 142.438 23.204 142.438 22.7805V13.1625H142.461L151.442 23.0141C151.561 23.1447 151.705 23.2492 151.867 23.3208C152.028 23.3924 152.203 23.4295 152.379 23.4298C152.486 23.4298 152.588 23.3873 152.664 23.3118C152.739 23.2362 152.782 23.1337 152.782 23.0269V9.23362C152.781 8.78688 152.602 8.35883 152.287 8.04294C151.971 7.72705 151.543 7.54898 151.096 7.54763H150.3C150.245 7.54729 150.189 7.558 150.138 7.57912C150.086 7.60025 150.039 7.63139 149.999 7.67074C149.96 7.71009 149.928 7.75688 149.907 7.80842C149.885 7.85996 149.874 7.91523 149.874 7.97105V17.2093H149.851L140.944 7.75549C140.819 7.62101 140.667 7.51378 140.498 7.44049C140.33 7.3672 140.148 7.32942 139.964 7.3295C139.86 7.33275 139.762 7.37551 139.689 7.449ZM176.745 8.19438L181.844 15.6671L181.857 22.7806C181.857 22.8364 181.868 22.8917 181.889 22.9432C181.911 22.9948 181.942 23.0416 181.982 23.0809C182.021 23.1203 182.068 23.1514 182.12 23.1725C182.172 23.1937 182.227 23.2044 182.283 23.204H184.336C184.447 23.2002 184.552 23.1544 184.631 23.0758C184.709 22.9972 184.755 22.8917 184.759 22.7806V15.6492L189.927 8.20721C189.971 8.14386 189.996 8.06963 190 7.99285C190.003 7.91608 189.985 7.83981 189.948 7.77262C189.911 7.70543 189.855 7.64999 189.788 7.61252C189.721 7.57505 189.645 7.55705 189.568 7.56053H187.259C187.187 7.56245 187.117 7.58165 187.054 7.6165C186.992 7.65136 186.939 7.70083 186.899 7.7607L183.32 12.8931L179.742 7.74787C179.703 7.688 179.65 7.63853 179.587 7.60367C179.525 7.56882 179.455 7.54962 179.383 7.5477H177.102C177.025 7.54472 176.949 7.56309 176.882 7.60075C176.816 7.63842 176.761 7.6939 176.724 7.761C176.687 7.82809 176.669 7.90416 176.673 7.98069C176.677 8.05722 176.702 8.13121 176.745 8.19438Z" fill="#DBF91D"/>
</svg>
